<svg xmlns="http://www.w3.org/2000/svg" 
version="1.1" xmlns:xlink="http://www.w3.org/1999/xlink" 
xmlns:svgjs="http://svgjs.com/svgjs" 
width="1440" 
height="560" 
preserveAspectRatio="none" 
viewBox="0 0 1440 560">
<g mask="url(&quot;#SvgjsMask1013&quot;)" fill="none">
<path d="M1029 61L646 -322" stroke-width="6" stroke="url(#SvgjsLinearGradient1014)" stroke-linecap="round" class="BottomRight"></path>
<path d="M445 389L737 681" stroke-width="8" stroke="url(#SvgjsLinearGradient1014)" stroke-linecap="round" class="BottomRight"></path>
<path d="M998 239L1375 616" stroke-width="10" stroke="url(#SvgjsLinearGradient1014)" stroke-linecap="round" class="BottomRight"></path>
<path d="M473 269L318 114" stroke-width="10" stroke="url(#SvgjsLinearGradient1014)" stroke-linecap="round" class="BottomRight"></path>
<path d="M249 217L562 530" stroke-width="6" stroke="url(#SvgjsLinearGradient1015)" stroke-linecap="round" class="TopLeft"></path>
<path d="M53 231L-272 -94" stroke-width="8" stroke="url(#SvgjsLinearGradient1014)" stroke-linecap="round" class="BottomRight">
</path><path d="M228 55L86 -87" stroke-width="8" stroke="url(#SvgjsLinearGradient1015)" stroke-linecap="round" class="TopLeft"></path>
<path d="M1106 21L713 -372" stroke-width="10" stroke="url(#SvgjsLinearGradient1015)" stroke-linecap="round" class="TopLeft"></path
><path d="M1392 254L1239 101" stroke-width="8" stroke="url(#SvgjsLinearGradient1014)" stroke-linecap="round" class="BottomRight"></path>
<path d="M403 301L260 158" stroke-width="8" stroke="url(#SvgjsLinearGradient1014)" stroke-linecap="round" class="BottomRight"></path>
<path d="M101 209L375 483" stroke-width="10" stroke="url(#SvgjsLinearGradient1014)" stroke-linecap="round" class="BottomRight"></path>
<path d="M84 124L396 436" stroke-width="8" stroke="url(#SvgjsLinearGradient1015)" stroke-linecap="round" class="TopLeft"></path><path d="M874 127L515 -232" stroke-width="10" stroke="url(#SvgjsLinearGradient1015)" stroke-linecap="round" class="TopLeft"></path><path d="M184 97L38 -49" stroke-width="10" stroke="url(#SvgjsLinearGradient1014)" stroke-linecap="round" class="BottomRight"></path><path d="M719 477L918 676" stroke-width="6" stroke="url(#SvgjsLinearGradient1014)" stroke-linecap="round" class="BottomRight"></path><path d="M674 546L295 167" stroke-width="10" stroke="url(#SvgjsLinearGradient1015)" stroke-linecap="round" class="TopLeft"></path><path d="M1394 395L1768 769" stroke-width="8" stroke="url(#SvgjsLinearGradient1014)" stroke-linecap="round" class="BottomRight"></path><path d="M799 169L398 -232" stroke-width="6" stroke="url(#SvgjsLinearGradient1014)" stroke-linecap="round" class="BottomRight"></path><path d="M1292 475L1077 260" stroke-width="8" stroke="url(#SvgjsLinearGradient1015)" stroke-linecap="round" class="TopLeft"></path><path d="M188 98L396 306" stroke-width="8" stroke="url(#SvgjsLinearGradient1015)" stroke-linecap="round" class="TopLeft"></path><path d="M869 205L481 -183" stroke-width="8" stroke="url(#SvgjsLinearGradient1014)" stroke-linecap="round" class="BottomRight"></path><path d="M30 192L-260 -98" stroke-width="8" stroke="url(#SvgjsLinearGradient1015)" stroke-linecap="round" class="TopLeft"></path><path d="M485 430L826 771" stroke-width="10" stroke="url(#SvgjsLinearGradient1015)" stroke-linecap="round" class="TopLeft"></path><path d="M1275 347L1634 706" stroke-width="8" stroke="url(#SvgjsLinearGradient1015)" stroke-linecap="round" class="TopLeft"></path><path d="M512 435L368 291" stroke-width="10" stroke="url(#SvgjsLinearGradient1015)" stroke-linecap="round" class="TopLeft"></path><path d="M1321 136L958 -227" stroke-width="8" stroke="url(#SvgjsLinearGradient1015)" stroke-linecap="round" class="TopLeft"></path><path d="M29 407L-125 253" stroke-width="6" stroke="url(#SvgjsLinearGradient1014)" stroke-linecap="round" class="BottomRight"></path><path d="M359 152L668 461" stroke-width="6" stroke="url(#SvgjsLinearGradient1015)" stroke-linecap="round" class="TopLeft"></path><path d="M40 156L270 386" stroke-width="10" stroke="url(#SvgjsLinearGradient1014)" stroke-linecap="round" class="BottomRight"></path><path d="M625 50L407 -168" stroke-width="6" stroke="url(#SvgjsLinearGradient1015)" stroke-linecap="round" class="TopLeft"></path><path d="M367 442L148 223" stroke-width="10" stroke="url(#SvgjsLinearGradient1014)" stroke-linecap="round" class="BottomRight"></path><path d="M163 461L-208 90" stroke-width="10" stroke="url(#SvgjsLinearGradient1015)" stroke-linecap="round" class="TopLeft"></path><path d="M1317 446L1500 629" stroke-width="10" stroke="url(#SvgjsLinearGradient1015)" stroke-linecap="round" class="TopLeft"></path><path d="M1038 357L860 179" stroke-width="6" stroke="url(#SvgjsLinearGradient1015)" stroke-linecap="round" class="TopLeft"></path><path d="M299 165L-48 -182" stroke-width="8" stroke="url(#SvgjsLinearGradient1015)" stroke-linecap="round" class="TopLeft"></path><path d="M1358 369L1572 583" stroke-width="10" stroke="url(#SvgjsLinearGradient1015)" stroke-linecap="round" class="TopLeft"></path><path d="M437 459L275 297" stroke-width="8" stroke="url(#SvgjsLinearGradient1015)" stroke-linecap="round" class="TopLeft"></path><path d="M243 57L472 286" stroke-width="10" stroke="url(#SvgjsLinearGradient1015)" stroke-linecap="round" class="TopLeft"></path><path d="M628 266L995 633" stroke-width="8" stroke="url(#SvgjsLinearGradient1014)" stroke-linecap="round" class="BottomRight"></path></g><defs><mask id="SvgjsMask1013"><rect width="1440" height="560" fill="#ffffff"></rect></mask>

<linearGradient x1="0%" y1="0%" x2="100%" y2="100%" id="SvgjsLinearGradient1014">
<stop stop-color="rgba(66, 68, 90, 0)" offset="0">
  <animate attributeName="stop-color" values="#01FF89; #7A5FFF; #01FF89" dur="2s" repeatCount="indefinite"></animate>
</stop>
<stop stop-color="rgba(66, 68, 90, 1)" offset="1">
  <animate attributeName="stop-color" values="#7A5FFF; #01FF89; #7A5FFF" dur="2s" repeatCount="indefinite"></animate>
</stop>
</linearGradient>

<linearGradient x1="100%" y1="100%" x2="0%" y2="0%" id="SvgjsLinearGradient1015">
<stop stop-color="rgba(66, 68, 90, 0)" offset="0">
  <animate attributeName="stop-color" values="#833ab4; #fd1d1d; #833ab4" dur="1s" repeatCount="indefinite"></animate>
</stop>

<stop stop-color="rgba(66, 68, 90, 1)" offset="1">
  <animate attributeName="stop-color" values="#fd1d1d; #833ab4;  #fd1d1d" dur="1s" repeatCount="indefinite"></animate>
</stop>
</linearGradient>
</defs>
</svg>